<?xml version="1.0" encoding="UTF-8" standalone="no"?>
<!DOCTYPE svg PUBLIC "-//W3C//DTD SVG 1.1//EN" "http://www.w3.org/Graphics/SVG/1.1/DTD/svg11.dtd">
<svg version="1.1" xmlns="http://www.w3.org/2000/svg" xmlns:xlink="http://www.w3.org/1999/xlink" preserveAspectRatio="xMidYMid meet" viewBox="228.67946080172806 180.2231826086957 160.29732839654355 84.55363478260881"><defs><path d="M278 184.25L278 180.22L388.98 180.22C388.98 184.45 388.98 186.8 388.98 187.27C388.98 187.27 336.13 190.36 336.13 222.5C336.13 254.64 365.57 256.72 365.57 256.72C365.57 257.26 365.57 259.94 365.57 264.78L267.43 264.78C267.43 259.94 267.43 257.26 267.43 256.72C267.43 256.72 293.85 255.09 293.85 233.07C293.85 211.05 265.64 211.93 265.64 211.93C235.73 211.93 228.68 184.25 228.68 184.25C235.26 184.25 251.7 184.25 278 184.25Z" id="b6LjFqI0C"></path></defs><g visibility="inherit"><g visibility="inherit"><use xlink:href="#b6LjFqI0C" opacity="1" fill="#d20000" fill-opacity="1"></use><g><use xlink:href="#b6LjFqI0C" opacity="1" fill-opacity="0" stroke="#000000" stroke-width="1" stroke-opacity="0"></use></g></g></g></svg>