<?xml version="1.0" encoding="UTF-8" standalone="no"?>
<!DOCTYPE svg PUBLIC "-//W3C//DTD SVG 1.1//EN" "http://www.w3.org/Graphics/SVG/1.1/DTD/svg11.dtd">
<svg version="1.1" xmlns="http://www.w3.org/2000/svg" xmlns:xlink="http://www.w3.org/1999/xlink" preserveAspectRatio="xMidYMid meet" viewBox="211.3316616958021 321.5760839067427 156.25339273668538 104.41316982404538"><defs><path d="M290.05 422.04C252.85 422.04 222.65 401.03 222.65 375.15C222.65 349.27 252.85 328.26 290.05 328.26C327.25 328.26 357.45 349.27 357.45 375.15C357.45 401.03 327.25 422.04 290.05 422.04Z" id="a22kH7bx"></path><path d="M227.1 385.81C220.63 385.81 215.38 380.61 215.38 374.21C215.38 367.8 220.63 362.6 227.1 362.6C233.57 362.6 238.82 367.8 238.82 374.21C238.82 380.61 233.57 385.81 227.1 385.81Z" id="a2lG7BnYft"></path><path d="M353.41 386.31C347.75 386.31 343.15 381.72 343.15 376.06C343.15 370.4 347.75 365.8 353.41 365.8C359.07 365.8 363.67 370.4 363.67 376.06C363.67 381.72 359.07 386.31 353.41 386.31Z" id="i9K7CqBbY"></path><path d="M294.1 321.69L296.08 321.81L298.05 321.98L300.01 322.18L301.95 322.42L303.87 322.71L305.78 323.03L307.68 323.39L309.55 323.8L311.41 324.24L313.24 324.72L315.06 325.24L316.85 325.8L318.62 326.39L320.37 327.03L322.09 327.7L323.79 328.41L325.46 329.15L327.1 329.93L328.71 330.75L330.3 331.61L331.85 332.5L333.38 333.43L334.87 334.39L336.32 335.39L337.75 336.42L339.14 337.48L340.49 338.59L341.8 339.72L343.08 340.89L344.32 342.09L344.63 342.4L344.93 342.71L345.23 343.02L345.53 343.34L345.83 343.65L346.12 343.97L346.41 344.28L346.69 344.6L346.97 344.92L347.25 345.24L347.53 345.56L347.8 345.88L348.07 346.2L348.33 346.53L348.6 346.85L348.85 347.18L349.11 347.5L349.36 347.83L349.61 348.16L349.86 348.49L350.1 348.82L350.34 349.15L350.58 349.49L350.81 349.82L351.04 350.16L351.27 350.49L351.49 350.83L351.71 351.17L351.93 351.51L352.15 351.85L352.36 352.19L352.56 352.53L352.74 352.84L352.92 353.15L353.11 353.45L353.3 353.75L353.5 354.05L353.71 354.35L353.92 354.65L354.14 354.94L354.37 355.24L354.6 355.53L354.84 355.82L355.09 356.11L355.34 356.4L355.6 356.68L355.86 356.97L356.14 357.25L356.41 357.53L356.7 357.82L356.99 358.1L357.29 358.38L357.59 358.66L357.9 358.93L358.22 359.21L358.54 359.49L358.87 359.77L359.21 360.04L359.55 360.32L359.9 360.59L360.25 360.87L360.61 361.14L360.98 361.42L361.36 361.69L361.71 361.96L362.06 362.23L362.4 362.51L362.73 362.81L363.05 363.11L363.36 363.42L363.66 363.74L363.95 364.07L364.23 364.41L364.51 364.76L364.77 365.11L365.02 365.47L365.26 365.84L365.49 366.21L365.71 366.59L365.91 366.98L366.11 367.38L366.29 367.77L366.47 368.18L366.63 368.59L366.78 369L366.92 369.42L367.04 369.84L367.15 370.27L367.25 370.7L367.34 371.13L367.41 371.57L367.48 372.01L367.52 372.45L367.56 372.89L367.58 373.34L367.59 373.78L367.58 374.23L367.56 374.67L367.52 375.12L367.48 375.56L367.41 376L367.34 376.43L367.25 376.86L367.15 377.29L367.04 377.72L366.92 378.14L366.78 378.56L366.63 378.98L366.47 379.39L366.29 379.79L366.11 380.19L365.91 380.58L365.71 380.97L365.49 381.35L365.26 381.73L365.02 382.1L364.77 382.46L364.51 382.81L364.23 383.16L363.95 383.49L363.66 383.82L363.36 384.14L363.05 384.46L362.73 384.76L362.4 385.05L362.06 385.34L361.71 385.61L361.36 385.87L360.98 386.15L360.61 386.42L360.25 386.7L359.9 386.97L359.55 387.25L359.21 387.52L358.87 387.8L358.54 388.08L358.22 388.35L357.9 388.63L357.59 388.91L357.29 389.19L356.99 389.47L356.7 389.75L356.41 390.03L356.14 390.31L355.86 390.6L355.6 390.88L355.34 391.17L355.09 391.46L354.84 391.75L354.6 392.04L354.37 392.33L354.14 392.62L353.92 392.92L353.71 393.21L353.5 393.51L353.3 393.81L353.11 394.11L352.92 394.42L352.74 394.72L352.56 395.03L351.51 396.78L350.38 398.49L349.17 400.16L347.88 401.79L346.52 403.37L345.09 404.91L343.6 406.41L342.03 407.85L340.4 409.26L338.71 410.61L336.96 411.91L335.15 413.17L333.29 414.37L331.37 415.52L329.4 416.61L327.38 417.65L325.31 418.64L323.2 419.57L321.04 420.44L318.85 421.25L316.61 422L314.34 422.69L312.04 423.32L309.7 423.88L307.33 424.38L304.94 424.82L302.52 425.19L300.07 425.49L297.61 425.72L295.12 425.88L292.62 425.97L290.1 425.99L288.1 425.98L286.1 425.94L284.12 425.84L282.15 425.71L280.19 425.53L278.25 425.31L276.32 425.05L274.41 424.75L272.52 424.4L270.65 424.02L268.79 423.59L266.95 423.12L265.14 422.62L263.35 422.07L261.58 421.48L259.83 420.86L258.11 420.2L256.41 419.5L254.74 418.76L253.1 417.98L251.48 417.16L249.9 416.31L248.35 415.42L246.82 414.5L245.33 413.54L243.87 412.54L242.45 411.51L241.06 410.45L239.71 409.35L238.39 408.21L237.12 407.04L235.88 405.84L235.59 405.55L235.3 405.25L235.01 404.95L234.73 404.66L234.45 404.35L234.17 404.05L233.89 403.75L233.62 403.44L233.35 403.13L233.08 402.82L232.81 402.51L232.55 402.2L232.29 401.89L232.03 401.57L231.78 401.26L231.53 400.94L231.28 400.62L231.04 400.3L230.8 399.98L230.56 399.66L230.32 399.34L230.09 399.02L229.87 398.69L229.64 398.37L229.42 398.04L229.21 397.72L229 397.39L228.79 397.07L228.59 396.74L228.39 396.42L228.19 396.09L228 395.76L227.79 395.42L227.58 395.08L227.35 394.74L227.13 394.41L226.89 394.07L226.65 393.74L226.4 393.41L226.15 393.09L225.89 392.76L225.62 392.44L225.35 392.12L225.07 391.81L224.79 391.49L224.5 391.18L224.2 390.87L223.9 390.57L223.59 390.26L223.28 389.96L222.96 389.66L222.64 389.37L222.31 389.08L221.97 388.79L221.63 388.5L221.28 388.22L220.92 387.94L220.56 387.66L220.2 387.38L219.83 387.11L219.45 386.84L219.07 386.58L218.68 386.31L218.29 386.06L217.9 385.79L217.52 385.52L217.15 385.24L216.78 384.94L216.43 384.64L216.09 384.33L215.75 384.01L215.43 383.68L215.11 383.34L214.81 382.99L214.52 382.64L214.24 382.28L213.97 381.91L213.71 381.54L213.47 381.15L213.23 380.77L213.01 380.37L212.8 379.97L212.61 379.57L212.42 379.16L212.25 378.75L212.1 378.33L211.96 377.9L211.83 377.48L211.71 377.05L211.61 376.61L211.53 376.18L211.46 375.74L211.4 375.3L211.36 374.86L211.34 374.41L211.33 373.97L211.34 373.52L211.36 373.08L211.4 372.64L211.45 372.2L211.52 371.76L211.6 371.33L211.69 370.9L211.8 370.48L211.92 370.06L212.06 369.64L212.21 369.23L212.37 368.82L212.55 368.42L212.74 368.02L212.95 367.62L213.16 367.23L213.39 366.85L213.64 366.47L213.89 366.1L214.16 365.73L214.44 365.37L214.73 365.02L215.03 364.67L215.35 364.33L215.68 364L216.02 363.67L216.37 363.35L216.73 363.04L217.1 362.74L217.49 362.44L217.89 362.15L218.29 361.88L218.68 361.62L219.07 361.35L219.45 361.09L219.83 360.82L220.2 360.55L220.56 360.27L220.92 360L221.28 359.71L221.63 359.43L221.97 359.14L222.31 358.85L222.64 358.56L222.96 358.27L223.28 357.97L223.59 357.67L223.9 357.37L224.2 357.06L224.5 356.75L224.79 356.44L225.07 356.12L225.35 355.81L225.62 355.49L225.89 355.17L226.15 354.84L226.4 354.52L226.65 354.19L226.89 353.86L227.13 353.52L227.35 353.19L227.58 352.85L227.79 352.51L228 352.17L229.05 350.45L230.19 348.77L231.39 347.14L232.68 345.54L234.03 343.99L235.45 342.47L236.95 341.01L238.5 339.58L240.12 338.2L241.81 336.87L243.55 335.59L245.35 334.36L247.2 333.17L249.11 332.04L251.07 330.96L253.07 329.93L255.13 328.96L257.23 328.04L259.37 327.18L261.55 326.38L263.77 325.63L266.02 324.94L268.31 324.32L270.63 323.75L272.98 323.25L275.36 322.81L277.77 322.44L280.2 322.13L282.65 321.89L285.11 321.72L287.6 321.61L290.1 321.58L292.1 321.61L294.1 321.69ZM285.15 326.85L282.7 327.03L280.28 327.28L277.87 327.6L275.5 327.98L273.15 328.44L270.84 328.96L268.55 329.54L266.31 330.19L264.1 330.89L261.93 331.66L259.8 332.49L257.72 333.38L255.68 334.33L253.7 335.33L251.77 336.39L249.89 337.51L248.06 338.67L246.3 339.89L244.6 341.17L242.96 342.49L241.38 343.86L239.88 345.28L238.44 346.74L237.08 348.25L235.79 349.81L234.58 351.41L233.45 353.05L232.4 354.73L232.14 355.17L231.87 355.6L231.59 356.03L231.3 356.46L231.01 356.88L230.71 357.3L230.4 357.72L230.08 358.13L229.75 358.54L229.41 358.94L229.07 359.34L228.72 359.73L228.36 360.12L227.99 360.51L227.61 360.89L227.23 361.27L226.84 361.64L226.44 362.01L226.03 362.38L225.61 362.74L225.19 363.09L224.76 363.44L224.32 363.79L223.87 364.13L223.42 364.47L222.96 364.8L222.49 365.13L222.01 365.46L221.53 365.78L221.04 366.09L220.75 366.28L220.47 366.47L220.2 366.67L219.94 366.87L219.68 367.08L219.44 367.29L219.2 367.51L218.98 367.74L218.76 367.97L218.55 368.2L218.35 368.44L218.16 368.68L217.98 368.93L217.81 369.18L217.65 369.43L217.5 369.69L217.36 369.95L217.23 370.22L217.11 370.49L217 370.76L216.9 371.03L216.81 371.31L216.73 371.59L216.66 371.87L216.6 372.15L216.55 372.44L216.51 372.73L216.48 373.02L216.47 373.31L216.46 373.6L216.47 373.89L216.48 374.18L216.51 374.47L216.55 374.76L216.6 375.05L216.66 375.33L216.73 375.61L216.81 375.89L216.9 376.17L217 376.44L217.11 376.71L217.23 376.98L217.36 377.25L217.5 377.51L217.65 377.77L217.81 378.02L217.98 378.27L218.16 378.52L218.35 378.76L218.55 379L218.76 379.23L218.98 379.46L219.2 379.69L219.44 379.91L219.68 380.12L219.94 380.33L220.2 380.53L220.47 380.73L220.75 380.92L221.04 381.11L221.28 381.31L221.51 381.51L221.75 381.71L221.98 381.91L222.21 382.1L222.45 382.3L222.67 382.49L222.9 382.69L223.13 382.88L223.35 383.07L223.58 383.26L223.8 383.45L224.02 383.64L224.24 383.83L224.45 384.02L224.67 384.21L224.88 384.39L225.09 384.58L225.3 384.76L225.5 384.95L225.71 385.13L225.91 385.32L226.11 385.5L226.31 385.69L226.51 385.87L226.7 386.06L226.89 386.24L227.08 386.42L227.27 386.61L227.45 386.79L227.63 386.97L227.82 387.16L228 387.35L228.18 387.54L228.36 387.73L228.54 387.93L228.72 388.13L228.9 388.33L229.08 388.53L229.26 388.73L229.43 388.93L229.6 389.14L229.77 389.35L229.94 389.56L230.11 389.77L230.27 389.98L230.43 390.19L230.59 390.4L230.75 390.62L230.9 390.83L231.05 391.05L231.19 391.27L231.33 391.48L231.47 391.7L231.61 391.92L231.74 392.14L231.86 392.36L231.98 392.58L232.1 392.8L232.21 393.02L232.4 393.35L232.59 393.67L232.79 394L232.98 394.32L233.19 394.64L233.4 394.95L233.61 395.27L233.83 395.58L234.05 395.89L234.27 396.2L234.5 396.5L234.73 396.81L234.96 397.11L235.2 397.41L235.44 397.71L235.69 398.01L235.93 398.3L236.18 398.6L236.44 398.89L236.69 399.18L236.95 399.47L237.21 399.75L237.47 400.04L237.74 400.32L238 400.6L238.27 400.88L238.54 401.16L238.81 401.44L239.08 401.72L239.36 401.99L240.59 403.18L241.86 404.34L243.17 405.46L244.52 406.55L245.9 407.6L247.32 408.62L248.78 409.59L250.28 410.54L251.8 411.44L253.36 412.3L254.95 413.13L256.57 413.92L258.23 414.67L259.91 415.38L261.61 416.05L263.35 416.68L265.11 417.27L266.9 417.82L268.71 418.33L270.54 418.79L272.39 419.21L274.27 419.59L276.17 419.93L278.08 420.22L280.01 420.47L281.96 420.68L283.93 420.84L285.91 420.95L287.91 421.02L289.92 421.04L292.43 421.01L294.93 420.9L297.41 420.71L299.86 420.46L302.28 420.14L304.68 419.74L307.04 419.28L309.37 418.76L311.67 418.16L313.93 417.51L316.15 416.79L318.32 416.01L320.46 415.17L322.54 414.26L324.58 413.3L326.57 412.29L328.51 411.21L330.39 410.08L332.22 408.9L333.99 407.66L335.7 406.38L337.34 405.04L338.92 403.65L340.43 402.22L341.88 400.73L343.25 399.2L344.55 397.63L345.77 396.01L346.92 394.35L347.98 392.65L348.21 392.25L348.44 391.85L348.68 391.46L348.93 391.07L349.19 390.68L349.46 390.3L349.73 389.92L350.01 389.54L350.3 389.17L350.6 388.8L350.91 388.43L351.23 388.07L351.55 387.71L351.88 387.35L352.22 386.99L352.57 386.64L352.92 386.3L353.29 385.95L353.66 385.61L354.04 385.27L354.42 384.93L354.82 384.6L355.22 384.27L355.63 383.94L356.05 383.61L356.47 383.29L356.9 382.97L357.34 382.65L357.79 382.34L358.24 382.03L358.5 381.84L358.74 381.65L358.98 381.44L359.21 381.24L359.43 381.02L359.65 380.8L359.85 380.57L360.05 380.34L360.24 380.1L360.43 379.85L360.6 379.6L360.77 379.35L360.93 379.08L361.08 378.82L361.22 378.55L361.35 378.27L361.48 377.99L361.59 377.7L361.7 377.41L361.8 377.11L361.89 376.81L361.97 376.51L362.04 376.2L362.1 375.89L362.15 375.58L362.2 375.26L362.23 374.94L362.25 374.62L362.27 374.29L362.27 373.97L362.27 373.64L362.25 373.31L362.23 372.99L362.2 372.67L362.15 372.35L362.1 372.04L362.04 371.73L361.97 371.42L361.89 371.12L361.8 370.82L361.7 370.52L361.59 370.23L361.48 369.95L361.35 369.66L361.22 369.39L361.08 369.11L360.93 368.85L360.77 368.58L360.6 368.33L360.43 368.08L360.24 367.83L360.05 367.59L359.85 367.36L359.65 367.13L359.43 366.91L359.21 366.7L358.98 366.49L358.74 366.29L358.5 366.09L358.24 365.91L357.77 365.58L357.31 365.24L356.86 364.91L356.42 364.58L355.99 364.24L355.58 363.9L355.17 363.57L354.77 363.23L354.38 362.88L354 362.54L353.62 362.2L353.26 361.85L352.91 361.5L352.56 361.15L352.22 360.8L351.89 360.45L351.57 360.09L351.25 359.73L350.94 359.37L350.64 359.01L350.35 358.65L350.06 358.28L349.78 357.92L349.51 357.55L349.24 357.18L348.98 356.8L348.72 356.42L348.47 356.05L348.23 355.66L347.98 355.28L347.8 354.95L347.61 354.62L347.41 354.29L347.21 353.96L347.01 353.63L346.8 353.31L346.59 352.98L346.37 352.65L346.15 352.32L345.92 352L345.69 351.67L345.46 351.35L345.22 351.02L344.98 350.7L344.73 350.38L344.48 350.06L344.23 349.74L343.98 349.43L343.72 349.11L343.45 348.8L343.19 348.48L342.92 348.17L342.64 347.86L342.37 347.56L342.09 347.25L341.81 346.95L341.53 346.65L341.24 346.35L340.95 346.05L340.66 345.76L339.43 344.56L338.16 343.41L336.85 342.28L335.5 341.2L334.11 340.15L332.69 339.13L331.23 338.15L329.74 337.21L328.21 336.31L326.65 335.44L325.06 334.62L323.44 333.83L321.79 333.08L320.11 332.37L318.4 331.7L316.67 331.07L314.9 330.48L313.12 329.93L311.31 329.42L309.48 328.96L307.62 328.54L305.75 328.16L303.85 327.82L301.93 327.53L300 327.28L298.05 327.07L296.09 326.91L294.1 326.8L292.11 326.73L290.1 326.71L287.62 326.74L285.15 326.85Z" id="cZrqEdFik"></path></defs><g visibility="inherit"><g visibility="inherit"><use xlink:href="#a22kH7bx" opacity="1" fill="#fcee16" fill-opacity="1"></use></g><g visibility="inherit"><use xlink:href="#a2lG7BnYft" opacity="1" fill="#fcee16" fill-opacity="1"></use></g><g visibility="inherit"><use xlink:href="#i9K7CqBbY" opacity="1" fill="#fcee16" fill-opacity="1"></use></g><g visibility="inherit"><use xlink:href="#cZrqEdFik" opacity="1" fill="#000000" fill-opacity="1"></use></g></g></svg>