<?xml version="1.0" encoding="UTF-8" standalone="no"?>
<!DOCTYPE svg PUBLIC "-//W3C//DTD SVG 1.1//EN" "http://www.w3.org/Graphics/SVG/1.1/DTD/svg11.dtd">
<svg version="1.1" xmlns="http://www.w3.org/2000/svg" xmlns:xlink="http://www.w3.org/1999/xlink" preserveAspectRatio="xMidYMid meet" viewBox="440.9247497671509 478.00306272502587 156.25339273668538 104.41316982404533"><defs><path d="M519.64 578.46C482.44 578.46 452.24 557.45 452.24 531.57C452.24 505.7 482.44 484.69 519.64 484.69C556.84 484.69 587.05 505.7 587.05 531.57C587.05 557.45 556.84 578.46 519.64 578.46Z" id="hgLNlF1lF"></path><path d="M456.69 542.24C450.22 542.24 444.97 537.04 444.97 530.63C444.97 524.23 450.22 519.03 456.69 519.03C463.16 519.03 468.42 524.23 468.42 530.63C468.42 537.04 463.16 542.24 456.69 542.24Z" id="a4Bp6HBPpO"></path><path d="M583 542.74C577.34 542.74 572.74 538.14 572.74 532.48C572.74 526.82 577.34 522.23 583 522.23C588.66 522.23 593.26 526.82 593.26 532.48C593.26 538.14 588.66 542.74 583 542.74Z" id="avQ3jR7ok"></path><path d="M523.69 478.12L525.67 478.24L527.64 478.4L529.6 478.61L531.54 478.85L533.47 479.13L535.38 479.46L537.27 479.82L539.15 480.22L541 480.66L542.84 481.15L544.65 481.67L546.45 482.22L548.22 482.82L549.96 483.45L551.69 484.12L553.38 484.83L555.05 485.58L556.69 486.36L558.31 487.18L559.89 488.03L561.45 488.93L562.97 489.85L564.46 490.81L565.92 491.81L567.34 492.84L568.73 493.91L570.08 495.01L571.4 496.15L572.68 497.32L573.91 498.52L574.22 498.83L574.53 499.14L574.83 499.45L575.12 499.76L575.42 500.08L575.71 500.39L576 500.71L576.28 501.03L576.57 501.34L576.84 501.66L577.12 501.98L577.39 502.31L577.66 502.63L577.93 502.95L578.19 503.28L578.45 503.6L578.7 503.93L578.96 504.26L579.21 504.59L579.45 504.92L579.7 505.25L579.94 505.58L580.17 505.91L580.41 506.25L580.64 506.58L580.86 506.92L581.09 507.26L581.31 507.6L581.52 507.94L581.74 508.28L581.95 508.62L582.16 508.96L582.33 509.27L582.51 509.57L582.7 509.88L582.9 510.18L583.1 510.48L583.3 510.78L583.52 511.08L583.74 511.37L583.96 511.66L584.2 511.96L584.44 512.25L584.68 512.53L584.93 512.82L585.19 513.11L585.46 513.39L585.73 513.68L586.01 513.96L586.29 514.24L586.58 514.52L586.88 514.8L587.18 515.08L587.49 515.36L587.81 515.64L588.13 515.92L588.46 516.19L588.8 516.47L589.14 516.74L589.49 517.02L589.85 517.3L590.21 517.57L590.58 517.84L590.95 518.12L591.31 518.38L591.65 518.66L591.99 518.94L592.32 519.23L592.64 519.54L592.95 519.85L593.25 520.17L593.55 520.5L593.83 520.84L594.1 521.18L594.36 521.54L594.61 521.9L594.85 522.26L595.08 522.64L595.3 523.02L595.51 523.41L595.7 523.8L595.89 524.2L596.06 524.61L596.22 525.02L596.37 525.43L596.51 525.85L596.63 526.27L596.75 526.7L596.85 527.13L596.93 527.56L597.01 528L597.07 528.44L597.12 528.88L597.15 529.32L597.17 529.76L597.18 530.21L597.17 530.66L597.15 531.1L597.12 531.54L597.07 531.98L597.01 532.42L596.93 532.86L596.85 533.29L596.75 533.72L596.63 534.15L596.51 534.57L596.37 534.99L596.22 535.4L596.06 535.81L595.89 536.22L595.7 536.62L595.51 537.01L595.3 537.4L595.08 537.78L594.85 538.15L594.61 538.52L594.36 538.88L594.1 539.24L593.83 539.58L593.55 539.92L593.25 540.25L592.95 540.57L592.64 540.88L592.32 541.19L591.99 541.48L591.65 541.76L591.31 542.04L590.95 542.3L590.58 542.57L590.21 542.85L589.85 543.12L589.49 543.4L589.14 543.67L588.8 543.95L588.46 544.23L588.13 544.5L587.81 544.78L587.49 545.06L587.18 545.34L586.88 545.62L586.58 545.9L586.29 546.18L586.01 546.46L585.73 546.74L585.46 547.03L585.19 547.31L584.93 547.6L584.68 547.88L584.44 548.17L584.2 548.46L583.96 548.76L583.74 549.05L583.52 549.34L583.3 549.64L583.1 549.94L582.9 550.24L582.7 550.54L582.51 550.84L582.33 551.15L582.16 551.46L581.1 553.21L579.97 554.92L578.76 556.59L577.47 558.21L576.12 559.8L574.69 561.34L573.19 562.83L571.62 564.28L570 565.68L568.3 567.04L566.55 568.34L564.74 569.59L562.88 570.8L560.96 571.94L558.99 573.04L556.97 574.08L554.9 575.07L552.79 575.99L550.64 576.87L548.44 577.68L546.21 578.43L543.94 579.12L541.63 579.75L539.29 580.31L536.93 580.81L534.53 581.24L532.11 581.61L529.66 581.91L527.2 582.14L524.71 582.31L522.21 582.4L519.69 582.42L517.69 582.41L515.69 582.36L513.71 582.27L511.74 582.14L509.79 581.96L507.84 581.74L505.92 581.48L504.01 581.17L502.11 580.83L500.24 580.44L498.38 580.02L496.55 579.55L494.73 579.04L492.94 578.5L491.17 577.91L489.42 577.29L487.7 576.62L486 575.92L484.33 575.18L482.69 574.41L481.08 573.59L479.49 572.74L477.94 571.85L476.42 570.93L474.93 569.97L473.47 568.97L472.04 567.94L470.66 566.87L469.3 565.77L467.99 564.64L466.71 563.47L465.47 562.27L465.18 561.97L464.89 561.68L464.61 561.38L464.32 561.08L464.04 560.78L463.76 560.48L463.48 560.17L463.21 559.87L462.94 559.56L462.67 559.25L462.4 558.94L462.14 558.63L461.88 558.31L461.62 558L461.37 557.68L461.12 557.37L460.87 557.05L460.63 556.73L460.39 556.41L460.15 556.09L459.92 555.77L459.69 555.44L459.46 555.12L459.24 554.8L459.02 554.47L458.8 554.15L458.59 553.82L458.38 553.5L458.18 553.17L457.98 552.84L457.79 552.52L457.59 552.19L457.38 551.85L457.17 551.51L456.95 551.17L456.72 550.84L456.48 550.5L456.24 550.17L456 549.84L455.74 549.52L455.48 549.19L455.22 548.87L454.95 548.55L454.67 548.23L454.38 547.92L454.09 547.61L453.8 547.3L453.5 546.99L453.19 546.69L452.87 546.39L452.55 546.09L452.23 545.8L451.9 545.5L451.56 545.21L451.22 544.93L450.87 544.64L450.52 544.36L450.16 544.09L449.79 543.81L449.42 543.54L449.05 543.27L448.66 543L448.28 542.74L447.89 542.48L447.49 542.22L447.11 541.95L446.74 541.66L446.38 541.37L446.02 541.07L445.68 540.75L445.34 540.43L445.02 540.1L444.71 539.77L444.4 539.42L444.11 539.07L443.83 538.71L443.56 538.34L443.3 537.96L443.06 537.58L442.83 537.19L442.6 536.8L442.4 536.4L442.2 536L442.02 535.59L441.85 535.17L441.69 534.75L441.55 534.33L441.42 533.9L441.31 533.47L441.21 533.04L441.12 532.61L441.05 532.17L441 531.73L440.96 531.28L440.93 530.84L440.92 530.39L440.93 529.95L440.95 529.5L440.99 529.06L441.04 528.63L441.11 528.19L441.19 527.76L441.29 527.33L441.39 526.91L441.52 526.49L441.65 526.07L441.8 525.66L441.97 525.25L442.15 524.84L442.34 524.44L442.54 524.05L442.76 523.66L442.99 523.28L443.23 522.9L443.48 522.53L443.75 522.16L444.03 521.8L444.32 521.45L444.63 521.1L444.94 520.76L445.27 520.43L445.61 520.1L445.96 519.78L446.32 519.47L446.7 519.16L447.08 518.87L447.48 518.58L447.89 518.3L448.28 518.04L448.66 517.78L449.05 517.52L449.42 517.25L449.79 516.98L450.16 516.7L450.52 516.42L450.87 516.14L451.22 515.86L451.56 515.57L451.9 515.28L452.23 514.99L452.55 514.69L452.87 514.4L453.19 514.1L453.5 513.79L453.8 513.49L454.09 513.18L454.38 512.87L454.67 512.55L454.95 512.24L455.22 511.92L455.48 511.59L455.74 511.27L456 510.94L456.24 510.62L456.48 510.28L456.72 509.95L456.95 509.61L457.17 509.28L457.38 508.94L457.59 508.59L458.65 506.88L459.78 505.2L460.99 503.56L462.27 501.97L463.62 500.41L465.05 498.9L466.54 497.43L468.1 496.01L469.72 494.63L471.4 493.3L473.14 492.02L474.94 490.78L476.79 489.6L478.7 488.47L480.66 487.39L482.67 486.36L484.72 485.39L486.82 484.47L488.96 483.61L491.14 482.8L493.36 482.06L495.62 481.37L497.91 480.75L500.23 480.18L502.58 479.68L504.96 479.24L507.36 478.87L509.79 478.56L512.24 478.32L514.71 478.14L517.19 478.04L519.69 478L521.7 478.04L523.69 478.12ZM514.74 483.28L512.3 483.46L509.87 483.71L507.47 484.03L505.09 484.41L502.75 484.86L500.43 485.38L498.15 485.97L495.9 486.61L493.69 487.32L491.52 488.09L489.39 488.92L487.31 489.81L485.28 490.76L483.29 491.76L481.36 492.82L479.48 493.93L477.66 495.1L475.89 496.32L474.19 497.59L472.55 498.91L470.97 500.28L469.47 501.7L468.03 503.17L466.67 504.68L465.38 506.23L464.17 507.83L463.04 509.48L461.99 511.16L461.73 511.6L461.46 512.03L461.18 512.46L460.9 512.89L460.6 513.31L460.3 513.73L459.99 514.14L459.67 514.56L459.34 514.96L459.01 515.37L458.66 515.76L458.31 516.16L457.95 516.55L457.58 516.94L457.2 517.32L456.82 517.7L456.43 518.07L456.03 518.44L455.62 518.8L455.21 519.16L454.78 519.52L454.35 519.87L453.91 520.22L453.47 520.56L453.01 520.9L452.55 521.23L452.08 521.56L451.61 521.88L451.12 522.2L450.63 522.52L450.34 522.7L450.06 522.89L449.79 523.09L449.53 523.3L449.28 523.5L449.03 523.72L448.8 523.94L448.57 524.16L448.35 524.39L448.14 524.63L447.94 524.86L447.76 525.11L447.58 525.35L447.41 525.6L447.24 525.86L447.09 526.12L446.95 526.38L446.82 526.64L446.7 526.91L446.59 527.18L446.49 527.46L446.4 527.73L446.32 528.01L446.25 528.3L446.19 528.58L446.14 528.87L446.1 529.15L446.08 529.44L446.06 529.73L446.05 530.03L446.06 530.32L446.08 530.61L446.1 530.9L446.14 531.19L446.19 531.47L446.25 531.76L446.32 532.04L446.4 532.32L446.49 532.6L446.59 532.87L446.7 533.14L446.82 533.41L446.95 533.67L447.09 533.94L447.24 534.19L447.41 534.45L447.58 534.7L447.76 534.95L447.94 535.19L448.14 535.43L448.35 535.66L448.57 535.89L448.8 536.11L449.03 536.33L449.28 536.55L449.53 536.76L449.79 536.96L450.06 537.16L450.34 537.35L450.63 537.54L450.87 537.74L451.11 537.94L451.34 538.14L451.58 538.33L451.81 538.53L452.04 538.73L452.27 538.92L452.5 539.11L452.72 539.31L452.95 539.5L453.17 539.69L453.39 539.88L453.61 540.07L453.83 540.26L454.05 540.44L454.26 540.63L454.47 540.82L454.68 541.01L454.89 541.19L455.1 541.38L455.3 541.56L455.5 541.75L455.7 541.93L455.9 542.11L456.1 542.3L456.29 542.48L456.48 542.67L456.67 542.85L456.86 543.03L457.04 543.22L457.23 543.4L457.41 543.59L457.59 543.78L457.78 543.97L457.96 544.16L458.14 544.36L458.32 544.55L458.5 544.75L458.67 544.95L458.85 545.16L459.02 545.36L459.2 545.57L459.37 545.77L459.53 545.98L459.7 546.19L459.86 546.4L460.03 546.62L460.18 546.83L460.34 547.04L460.49 547.26L460.64 547.48L460.79 547.69L460.93 547.91L461.07 548.13L461.2 548.35L461.33 548.57L461.46 548.78L461.58 549L461.7 549.22L461.81 549.44L461.99 549.77L462.18 550.1L462.38 550.42L462.58 550.74L462.78 551.06L462.99 551.38L463.2 551.69L463.42 552.01L463.64 552.32L463.86 552.63L464.09 552.93L464.32 553.24L464.56 553.54L464.79 553.84L465.04 554.14L465.28 554.43L465.53 554.73L465.78 555.02L466.03 555.31L466.29 555.6L466.54 555.89L466.8 556.18L467.06 556.46L467.33 556.75L467.6 557.03L467.86 557.31L468.13 557.59L468.4 557.87L468.68 558.14L468.95 558.42L470.18 559.61L471.45 560.77L472.76 561.89L474.11 562.98L475.5 564.03L476.92 565.04L478.38 566.02L479.87 566.96L481.4 567.87L482.95 568.73L484.55 569.56L486.17 570.35L487.82 571.1L489.5 571.81L491.21 572.48L492.94 573.11L494.7 573.7L496.49 574.25L498.3 574.75L500.13 575.22L501.99 575.64L503.86 576.02L505.76 576.36L507.67 576.65L509.61 576.9L511.56 577.1L513.52 577.26L515.51 577.38L517.5 577.45L519.51 577.47L522.03 577.43L524.53 577.32L527 577.14L529.45 576.89L531.88 576.56L534.27 576.17L536.63 575.71L538.97 575.18L541.26 574.59L543.52 573.94L545.74 573.22L547.92 572.44L550.05 571.59L552.14 570.69L554.18 569.73L556.17 568.71L558.1 567.64L559.99 566.51L561.81 565.33L563.58 564.09L565.29 562.8L566.93 561.47L568.51 560.08L570.03 558.64L571.47 557.16L572.84 555.63L574.14 554.06L575.37 552.44L576.51 550.78L577.58 549.08L577.8 548.68L578.03 548.28L578.28 547.88L578.52 547.49L578.78 547.11L579.05 546.72L579.32 546.34L579.61 545.97L579.9 545.59L580.2 545.22L580.5 544.86L580.82 544.49L581.14 544.13L581.47 543.78L581.81 543.42L582.16 543.07L582.52 542.72L582.88 542.38L583.25 542.04L583.63 541.7L584.02 541.36L584.41 541.03L584.81 540.69L585.22 540.37L585.64 540.04L586.06 539.72L586.5 539.4L586.93 539.08L587.38 538.77L587.84 538.45L588.09 538.27L588.33 538.07L588.57 537.87L588.8 537.66L589.02 537.45L589.24 537.23L589.45 537L589.65 536.77L589.84 536.53L590.02 536.28L590.2 536.03L590.36 535.77L590.52 535.51L590.67 535.24L590.81 534.97L590.95 534.7L591.07 534.41L591.19 534.13L591.29 533.84L591.39 533.54L591.48 533.24L591.56 532.94L591.63 532.63L591.69 532.32L591.75 532.01L591.79 531.69L591.82 531.37L591.85 531.05L591.86 530.72L591.87 530.39L591.86 530.06L591.85 529.74L591.82 529.42L591.79 529.1L591.75 528.78L591.69 528.46L591.63 528.15L591.56 527.85L591.48 527.54L591.39 527.24L591.29 526.95L591.19 526.66L591.07 526.37L590.95 526.09L590.81 525.81L590.67 525.54L590.52 525.27L590.36 525.01L590.2 524.76L590.02 524.5L589.84 524.26L589.65 524.02L589.45 523.79L589.24 523.56L589.02 523.34L588.8 523.12L588.57 522.91L588.33 522.71L588.09 522.52L587.84 522.33L587.37 522L586.91 521.67L586.46 521.34L586.02 521L585.59 520.67L585.17 520.33L584.76 519.99L584.36 519.65L583.97 519.31L583.59 518.97L583.22 518.62L582.85 518.28L582.5 517.93L582.15 517.58L581.81 517.23L581.48 516.87L581.16 516.52L580.85 516.16L580.54 515.8L580.24 515.44L579.94 515.08L579.66 514.71L579.38 514.34L579.1 513.97L578.83 513.6L578.57 513.23L578.32 512.85L578.06 512.47L577.82 512.09L577.58 511.71L577.39 511.38L577.2 511.05L577.01 510.72L576.81 510.39L576.6 510.06L576.39 509.73L576.18 509.4L575.96 509.08L575.74 508.75L575.52 508.42L575.29 508.1L575.05 507.78L574.81 507.45L574.57 507.13L574.33 506.81L574.08 506.49L573.82 506.17L573.57 505.85L573.31 505.54L573.05 505.22L572.78 504.91L572.51 504.6L572.24 504.29L571.96 503.98L571.68 503.68L571.4 503.37L571.12 503.07L570.83 502.77L570.54 502.48L570.25 502.18L569.02 500.99L567.75 499.83L566.44 498.71L565.09 497.62L563.71 496.57L562.28 495.56L560.83 494.58L559.33 493.64L557.81 492.74L556.25 491.87L554.66 491.04L553.03 490.25L551.38 489.5L549.7 488.79L547.99 488.12L546.26 487.49L544.5 486.9L542.71 486.36L540.9 485.85L539.07 485.38L537.21 484.96L535.34 484.58L533.44 484.25L531.53 483.95L529.59 483.7L527.64 483.5L525.68 483.34L523.7 483.22L521.7 483.16L519.69 483.13L517.21 483.17L514.74 483.28Z" id="g4Nf3HNuT"></path><path d="M476.69 562.24C470.22 562.24 464.97 557.04 464.97 550.63C464.97 544.23 470.22 539.03 476.69 539.03C483.16 539.03 488.42 544.23 488.42 550.63C488.42 557.04 483.16 562.24 476.69 562.24Z" id="e3Eyu4VHE"></path></defs><g visibility="inherit"><g visibility="inherit"><use xlink:href="#hgLNlF1lF" opacity="1" fill="#fcee16" fill-opacity="1"></use></g><g visibility="inherit"><use xlink:href="#a4Bp6HBPpO" opacity="1" fill="#fcee16" fill-opacity="1"></use></g><g visibility="inherit"><use xlink:href="#avQ3jR7ok" opacity="1" fill="#fcee16" fill-opacity="1"></use></g><g visibility="inherit"><use xlink:href="#g4Nf3HNuT" opacity="1" fill="#ffffff" fill-opacity="1"></use></g><g visibility="inherit"><use xlink:href="#e3Eyu4VHE" opacity="1" fill="#fcee16" fill-opacity="1"></use></g></g></svg>